# xmcd
#
# Track frame offsets:
#	150
#	10765
#	21845
#	37030
#	47345
#	61687
#	73110
#	82905
#	96850
#	109187
#	124927
#	142557
#	148527
#	157017
#	166950
#	175500
#
# Disc length: 2416 seconds
#
# Revision: 1
# Processed by: cddbd v1.4PL0 Copyright (c) Steve Scherf et al.
# Submitted via: audiograbber 1.82.02
#
DISCID=c4096e10
DTITLE=Jimmy Murphy - Electricity
DYEAR=1900
DGENRE=Country
TTITLE0=You Touched Me And Made Me Live Again
TTITLE1=Electricity
TTITLE2=Shanty Boat Blues
TTITLE3=He's Always The Same
TTITLE4=It Seems I Always Get What I Don't Want
TTITLE5=Wake Me Up Sweet Jesus
TTITLE6=We Live A Long Time To Get Old
TTITLE7=I Get A Longing To Hear Hank Sing The Blues
TTITLE8=Mother Where Is Your Daughter Tonight
TTITLE9=The Morning Light Is Breaking
TTITLE10=Louise
TTITLE11=Corbin Stomp
TTITLE12=Mig Mama Blues
TTITLE13=How Long Blues
TTITLE14=John The Baptist
TTITLE15=Holy Ghost Millionaire
EXTD=
EXTT0=
EXTT1=
EXTT2=
EXTT3=
EXTT4=
EXTT5=
EXTT6=
EXTT7=
EXTT8=
EXTT9=
EXTT10=
EXTT11=
EXTT12=
EXTT13=
EXTT14=
EXTT15=
PLAYORDER=
